<?xml version="1.0" encoding="UTF-8"?>
<!DOCTYPE svg PUBLIC "-//W3C//DTD SVG 1.1//EN" "http://www.w3.org/Graphics/SVG/1.1/DTD/svg11.dtd">
<!-- Creator: CorelDRAW X7 -->
<svg xmlns="http://www.w3.org/2000/svg" xml:space="preserve" width="2.706mm" height="4.67mm" version="1.1" style="shape-rendering:geometricPrecision; text-rendering:geometricPrecision; image-rendering:optimizeQuality; fill-rule:evenodd; clip-rule:evenodd"
viewBox="0 0 271 467"
 xmlns:xlink="http://www.w3.org/1999/xlink">
 <defs>
  <style type="text/css">
   <![CDATA[
    .fil0 {fill:#FEFEFE}
   ]]>
  </style>
 </defs>
 <g id="Слой_x0020_1">
  <metadata id="CorelCorpID_0Corel-Layer"/>
  <g id="_559868984">
   <path class="fil0" d="M0 278c0,12 2,20 11,29 3,2 8,5 11,7l30 15c2,0 4,1 6,2 5,2 9,3 14,5 2,0 4,1 7,1 2,1 5,2 7,2 -2,3 -39,40 -42,43 -7,6 -27,25 -31,33 -11,20 0,44 21,50 13,4 24,1 34,-7 6,-5 64,-65 67,-67 2,1 6,5 8,7l59 59c3,3 5,5 9,6 21,11 51,-2 51,-33 0,-6 -3,-13 -5,-16 -1,-3 -3,-4 -4,-6 -6,-6 -67,-66 -69,-69 16,-3 26,-7 41,-13l24 -12c12,-7 22,-18 22,-33 0,-7 -3,-15 -6,-20 -1,-2 -3,-3 -4,-5 -4,-5 -15,-11 -23,-11 -18,0 -19,5 -37,13 -9,5 -23,10 -33,12 -23,5 -43,5 -66,0 -14,-3 -31,-9 -43,-17 -11,-7 -13,-8 -26,-8 -7,0 -14,3 -18,6 -8,6 -15,17 -15,27z"/>
   <path class="fil0" d="M85 121c0,-7 2,-15 4,-20 2,-5 6,-11 10,-14l6 -6c2,-2 5,-3 8,-5 25,-12 56,-1 68,24 8,19 4,42 -10,55 -16,15 -39,20 -58,10 -3,-2 -11,-7 -14,-10 -6,-7 -10,-13 -12,-23 -1,-3 -2,-8 -2,-11zm-70 -4c0,15 1,28 6,41 0,1 0,2 1,3 3,10 9,21 15,30 18,25 41,39 71,47 17,4 36,4 53,0 8,-1 15,-4 22,-7 9,-3 25,-13 32,-20l4 -3c15,-14 27,-36 32,-56 7,-22 6,-52 -3,-74 -3,-8 -3,-7 -7,-15 -2,-5 -11,-17 -15,-21l-7 -8c-2,-3 -5,-4 -8,-7 -1,-1 -2,-2 -4,-3 -12,-9 -20,-13 -33,-18 -26,-9 -64,-8 -88,4l-10 5c-5,3 -13,8 -17,12l-8 8c-2,1 -2,2 -4,3 -19,21 -32,50 -32,79z"/>
  </g>
 </g>
</svg>
