<?xml version="1.0" encoding="UTF-8"?>
<!DOCTYPE svg PUBLIC "-//W3C//DTD SVG 1.1//EN" "http://www.w3.org/Graphics/SVG/1.1/DTD/svg11.dtd">
<!-- Creator: CorelDRAW X7 -->
<svg xmlns="http://www.w3.org/2000/svg" xml:space="preserve" width="1.926mm" height="4.1368mm" version="1.1" style="shape-rendering:geometricPrecision; text-rendering:geometricPrecision; image-rendering:optimizeQuality; fill-rule:evenodd; clip-rule:evenodd"
viewBox="0 0 193 414"
 xmlns:xlink="http://www.w3.org/1999/xlink">
 <defs>
  <style type="text/css">
   <![CDATA[
    .fil0 {fill:#FEFEFE}
   ]]>
  </style>
 </defs>
 <g id="Слой_x0020_1">
  <metadata id="CorelCorpID_0Corel-Layer"/>
  <path class="fil0" d="M151 71c3,-1 35,0 41,0l0 -71 -64 0c-11,-1 -35,5 -45,10 -28,13 -38,40 -40,71 -1,16 1,43 0,54l-43 0 0 71 43 0 0 207c7,1 80,1 85,0l0 -207 57 0 8 -71 -65 0c0,-4 0,-38 0,-43 1,-7 2,-13 6,-16 4,-3 11,-5 17,-5z"/>
 </g>
</svg>
