<?xml version="1.0" encoding="UTF-8"?>
<!DOCTYPE svg PUBLIC "-//W3C//DTD SVG 1.1//EN" "http://www.w3.org/Graphics/SVG/1.1/DTD/svg11.dtd">
<!-- Creator: CorelDRAW X7 -->
<svg xmlns="http://www.w3.org/2000/svg" xml:space="preserve" width="58.842mm" height="52.053mm" version="1.1" style="shape-rendering:geometricPrecision; text-rendering:geometricPrecision; image-rendering:optimizeQuality; fill-rule:evenodd; clip-rule:evenodd"
viewBox="0 0 5884 5205"
 xmlns:xlink="http://www.w3.org/1999/xlink">
 <defs>
  <style type="text/css">
   <![CDATA[
    .fil0 {fill:#FEFEFE}
    .fil1 {fill:#FEFEFE;fill-rule:nonzero}
   ]]>
  </style>
 </defs>
 <g id="Слой_x0020_1">
  <metadata id="CorelCorpID_0Corel-Layer"/>
  <path class="fil0" d="M3283 3247l143 -5c9,-352 -3,-728 41,-1107 29,-257 101,-511 156,-778 282,54 514,28 801,25 -203,622 -286,1210 -357,1805 -66,-17 -132,-32 -199,-46 -69,203 -110,417 -123,641 71,-180 148,-346 250,-455 215,-15 432,31 647,55 -6,-2 15,-41 10,-43 -111,-40 -251,-54 -364,-89 -17,-491 140,-919 394,-1311l-61 -82c-242,346 -378,812 -441,1360 -15,-4 -30,-8 -45,-12 70,-618 160,-1208 368,-1626l90 154c-4,-153 21,-305 54,-415 0,0 -198,-5 -219,-6 60,-157 134,-291 226,-398 -91,78 -172,181 -250,294 62,-165 99,-346 118,-538l138 143 -122 -363c-250,11 -493,-4 -730,-44 9,275 -10,538 -43,796 68,-215 121,-437 138,-680 187,40 379,49 577,34 -65,269 -140,518 -226,748 -257,-14 -514,-39 -771,-87 -116,669 -162,1341 -200,2030z"/>
  <path class="fil0" d="M3700 2869l123 11c-34,96 -46,192 -46,287l-116 -2c0,-101 12,-200 39,-296z"/>
  <polygon class="fil0" points="3550,2389 3674,2399 3628,2686 3499,2685 "/>
  <polygon class="fil0" points="3746,2389 3870,2399 3823,2686 3695,2685 "/>
  <polygon class="fil0" points="3975,2389 4099,2399 4052,2686 3924,2685 "/>
  <polygon class="fil0" points="3622,1932 3745,1943 3699,2230 3571,2229 "/>
  <polygon class="fil0" points="3821,1935 3945,1946 3899,2233 3770,2231 "/>
  <polygon class="fil0" points="4054,1940 4178,1951 4132,2238 4003,2237 "/>
  <polygon class="fil0" points="3686,1538 3810,1549 3764,1836 3635,1834 "/>
  <polygon class="fil0" points="3903,1534 4027,1545 3981,1832 3852,1830 "/>
  <polygon class="fil0" points="4145,1529 4269,1539 4223,1827 4095,1825 "/>
  <polygon class="fil0" points="4140,615 4264,626 4181,927 4052,926 "/>
  <polygon class="fil0" points="4008,997 4132,1008 4068,1239 3940,1238 "/>
  <rect class="fil0" x="2006" y="2686" width="189" height="377"/>
  <rect class="fil0" x="2272" y="2629" width="189" height="332"/>
  <polygon class="fil0" points="1575,2548 1644,2416 1768,2759 1721,2796 "/>
  <polygon class="fil0" points="1900,2228 2068,2228 2104,2549 2020,2556 "/>
  <polygon class="fil0" points="2112,2206 2280,2206 2315,2528 2232,2534 "/>
  <polygon class="fil0" points="2323,2172 2491,2172 2527,2493 2444,2500 "/>
  <rect class="fil0" x="2839" y="2373" width="128" height="344"/>
  <rect class="fil0" x="2803" y="1909" width="128" height="344"/>
  <rect class="fil0" x="2795" y="1417" width="128" height="344"/>
  <rect class="fil0" x="2612" y="1411" width="128" height="344"/>
  <rect class="fil0" x="2421" y="1417" width="128" height="344"/>
  <polygon class="fil0" points="2286,935 2401,910 2495,1278 2389,1303 "/>
  <polygon class="fil0" points="2495,889 2617,877 2687,1237 2587,1259 "/>
  <polygon class="fil0" points="2674,862 2798,845 2866,1214 2745,1223 "/>
  <polygon class="fil0" points="2189,480 2318,452 2357,656 2273,693 "/>
  <polygon class="fil0" points="2413,440 2512,418 2571,638 2475,661 "/>
  <polygon class="fil0" points="2615,420 2729,383 2790,608 2684,629 "/>
  <path class="fil0" d="M2378 3216l89 0c-33,-60 -68,-120 -72,-180l259 -2 17 193 159 -6 -47 -169 495 74 7 -86 -172 -27 -148 -2452c47,31 107,84 190,177 -6,628 56,1278 135,1934l-53 -1921c-154,-250 -308,-501 -462,-751 -308,126 -621,212 -944,253 164,542 326,1084 402,1629 -205,34 -407,59 -605,69 -91,193 -187,347 -285,466l288 638 97 -2 -245 -549 161 -307c104,280 178,563 236,850l102 1c-64,-330 -144,-654 -250,-980 262,-29 524,-79 783,-154l133 1053 -390 11c22,90 65,168 120,238zm718 -205l-15 -3 -315 -58 -23 7 -130 -1149c-90,20 -180,38 -269,55 -21,-522 -178,-1044 -326,-1566 226,-19 449,-75 668,-169l8 -11c290,951 296,1947 402,2894z"/>
  <polygon class="fil0" points="4592,3911 4798,3506 4944,3712 4774,3926 4840,4013 5075,3739 4826,3352 4526,3839 "/>
  <polygon class="fil0" points="4497,3442 4615,3452 4478,3735 4379,3729 "/>
  <polygon class="fil0" points="4268,3427 4386,3438 4249,3721 4150,3714 "/>
  <polygon class="fil0" points="4018,3403 4136,3414 3999,3697 3900,3690 "/>
  <polygon class="fil0" points="3848,3813 3954,3813 3954,3953 3848,3954 "/>
  <polygon class="fil0" points="4058,3848 4236,3847 4237,3953 4059,3955 "/>
  <polygon class="fil0" points="4270,3848 4447,3848 4443,3957 4271,3951 "/>
  <path class="fil0" d="M2716 4135l-5 85c-508,-67 -1017,-128 -1543,-146l3 -135 512 65 0 -167 93 29 -6 149 252 32 0 -153 95 13 0 152 599 76z"/>
  <rect class="fil0" x="2511" y="3848" width="68.13" height="206.47"/>
  <rect class="fil0" x="2617" y="3849" width="64.83" height="172.74"/>
  <rect class="fil0" x="2719" y="3852" width="99.22" height="209.78"/>
  <rect class="fil0" x="2891" y="3850" width="93.27" height="98.99"/>
  <rect class="fil0" x="3183" y="3849" width="91.28" height="107.58"/>
  <path class="fil1" d="M323 5146l0 -236 160 0 0 31 -125 0 0 205 -35 0zm315 6c-34,0 -62,-12 -84,-35 -23,-23 -34,-52 -34,-88 0,-35 11,-64 32,-88 22,-24 49,-36 81,-36 34,0 61,12 80,36 20,24 30,53 30,89 0,5 0,9 0,13l-188 0c3,24 12,43 27,57 16,14 35,21 56,21 29,0 54,-11 75,-33l22 20c-27,29 -59,44 -97,44zm-83 -138l152 0c-2,-22 -9,-41 -22,-56 -13,-16 -31,-23 -53,-23 -20,0 -37,7 -52,22 -14,15 -22,34 -25,57zm250 132l0 -236 35 0 0 102 136 0 0 -102 35 0 0 236 -35 0 0 -103 -136 0 0 103 -35 0zm342 0l0 -205 -85 0 0 -31 205 0 0 31 -85 0 0 205 -35 0zm247 6c-34,0 -62,-12 -86,-36 -23,-25 -35,-54 -35,-87 0,-34 12,-63 35,-87 24,-25 52,-37 86,-37 37,0 68,14 95,42l-23 24c-21,-23 -46,-35 -72,-35 -24,0 -44,9 -60,27 -16,18 -25,40 -25,66 0,25 9,47 25,65 17,17 37,26 62,26 25,0 49,-12 71,-35l24 21c-28,31 -60,46 -97,46zm222 -6l0 -205 -85 0 0 -31 205 0 0 31 -85 0 0 205 -35 0zm171 0l0 -236 114 0c24,0 42,6 56,16 14,11 21,25 21,43 0,25 -13,44 -39,55 35,9 52,28 52,58 0,20 -8,35 -23,47 -16,12 -37,17 -63,17l-118 0zm35 -30l79 0c16,0 30,-3 39,-10 10,-7 15,-17 15,-29 0,-12 -5,-21 -15,-27 -10,-7 -25,-10 -44,-10l-74 0 0 76zm0 -104l73 0c14,0 26,-4 35,-10 8,-7 13,-16 13,-28 0,-10 -4,-18 -13,-24 -8,-7 -19,-10 -34,-10l-74 0 0 72zm408 104c-23,24 -53,36 -88,36 -35,0 -64,-12 -87,-36 -23,-24 -35,-53 -35,-87 0,-34 12,-63 35,-87 24,-25 53,-37 88,-37 35,0 64,12 88,36 23,24 35,53 35,88 0,33 -12,62 -36,87zm-87 4c25,0 46,-8 63,-26 16,-18 24,-40 24,-65 0,-26 -8,-48 -25,-66 -17,-18 -38,-27 -63,-27 -25,0 -46,9 -62,27 -16,18 -24,40 -24,66 0,25 8,47 25,65 17,17 38,26 62,26zm274 26l0 -236 35 0 0 102 136 0 0 -102 35 0 0 236 -35 0 0 -103 -136 0 0 103 -35 0zm388 6c-34,0 -61,-12 -84,-35 -23,-23 -34,-52 -34,-88 0,-35 11,-64 32,-88 22,-24 49,-36 81,-36 34,0 61,12 80,36 20,24 30,53 30,89 0,5 0,9 0,13l-188 0c3,24 12,43 28,57 15,14 34,21 56,21 28,0 53,-11 74,-33l22 20c-27,29 -59,44 -97,44zm-83 -138l153 0c-3,-22 -10,-41 -23,-56 -13,-16 -31,-23 -53,-23 -20,0 -37,7 -51,22 -15,15 -23,34 -26,57zm245 191l0 -90 26 0 110 -209 109 209 36 0 -6 90 -29 0 0 -59 -211 0 -6 59 -29 0zm63 -90l147 0 -71 -134 -76 134zm256 31l0 -236 114 0c24,0 43,6 57,16 14,11 21,25 21,43 0,25 -14,44 -40,55 35,9 52,28 52,58 0,20 -7,35 -23,47 -15,12 -36,17 -63,17l-118 0zm35 -30l79 0c17,0 30,-3 40,-10 9,-7 14,-17 14,-29 0,-12 -5,-21 -15,-27 -10,-7 -25,-10 -44,-10l-74 0 0 76zm0 -104l73 0c15,0 26,-4 35,-10 9,-7 13,-16 13,-28 0,-10 -4,-18 -12,-24 -9,-7 -20,-10 -35,-10l-74 0 0 72zm233 134l0 -236 35 0 0 187 140 -187 34 0 0 236 -35 0 0 -186 -140 186 -34 0zm258 0l97 -135 -92 -101 42 0 120 137 0 -137 36 0 0 137 120 -137 42 0 -92 101 97 135 -41 0 -79 -110 -47 53 0 57 -36 0 0 -57 -48 -53 -78 110 -41 0zm429 0l0 -236 35 0 0 187 140 -187 34 0 0 236 -35 0 0 -186 -141 186 -33 0zm288 0l0 -236 33 0 88 125 88 -125 34 0 0 236 -36 0 0 -180 -87 120 -86 -120 0 180 -34 0zm547 -30c-23,24 -53,36 -88,36 -35,0 -64,-12 -87,-36 -23,-24 -35,-53 -35,-87 0,-34 12,-63 35,-87 24,-25 53,-37 88,-37 35,0 64,12 88,36 23,24 35,53 35,88 0,33 -12,62 -36,87zm-87 4c26,0 46,-8 63,-26 16,-18 24,-40 24,-65 0,-26 -8,-48 -25,-66 -17,-18 -38,-27 -63,-27 -25,0 -46,9 -62,27 -16,18 -24,40 -24,66 0,25 8,47 25,65 17,17 38,26 62,26zm313 32c-34,0 -63,-12 -86,-36 -23,-25 -35,-54 -35,-87 0,-34 12,-63 35,-87 23,-25 52,-37 86,-37 36,0 68,14 94,42l-22 24c-22,-23 -46,-35 -73,-35 -23,0 -43,9 -60,27 -16,18 -24,40 -24,66 0,25 8,47 25,65 16,17 37,26 62,26 25,0 49,-12 71,-35l23 21c-27,31 -59,46 -96,46zm221 -6l0 -205 -84 0 0 -31 204 0 0 31 -84 0 0 205 -36 0zm152 0l0 -236 35 0 0 187 140 -187 34 0 0 236 -35 0 0 -186 -141 186 -33 0z"/>
  <polygon class="fil0" points="218,3319 356,3319 245,3482 354,3673 213,3674 96,3481 "/>
  <polygon class="fil0" points="414,3319 552,3319 442,3481 552,3674 410,3674 292,3481 "/>
  <polygon class="fil0" points="886,3178 1091,3178 1090,3778 885,3778 885,3566 812,3566 812,3778 607,3778 607,3178 812,3178 812,3394 885,3394 "/>
  <path class="fil0" d="M1408 3320c138,0 249,105 249,235 0,129 -115,227 -253,227 -137,0 -244,-98 -244,-227 0,-130 111,-235 248,-235zm4 163c38,0 68,29 68,64 0,35 -30,64 -68,64 -37,0 -67,-29 -67,-64 0,-35 30,-64 67,-64z"/>
  <path class="fil0" d="M1695 3178l126 0c146,-1 216,7 260,39 75,54 31,219 -67,222 169,64 148,208 57,286 -93,80 -339,89 -374,-128l-2 -419zm140 122l0 313c190,114 222,-179 41,-147l-1 -48c192,-69 45,-171 -40,-118z"/>
  <path class="fil0" d="M2221 3321l140 0 1 257c41,119 200,57 155,-53 -22,-31 -63,-48 -121,-30l0 -80c77,-18 172,-8 221,91 101,344 -366,349 -397,129l1 -314z"/>
  <rect class="fil0" x="2648" y="3324" width="176" height="455"/>
  <path class="fil0" d="M2871 3322l166 0 1 328c24,23 59,-27 68,-32l0 -291 172 0 0 452 -172 0 0 -61c-89,101 -237,75 -235,-69l0 -327z"/>
  <path class="fil0" d="M3113 4493l173 0 -8 -301c-28,-202 -319,-194 -415,-101 -114,111 -113,412 209,399l-1 -177c-47,6 -79,-6 -76,-58 3,-70 126,-66 114,20l4 218z"/>
  <path class="fil0" d="M3596 4073l7 131c-30,-16 -77,-12 -99,31 -26,97 126,138 127,-7 -3,-90 20,-204 -63,-218 -54,-11 -115,-9 -178,1l1 -148c123,-23 396,-52 426,131l0 301c-6,225 -469,295 -506,4 -7,-203 115,-245 285,-226z"/>
  <path class="fil0" d="M3836 4662l182 -1 3 -440c95,-96 181,120 21,109l0 163c161,3 268,-60 263,-260 -37,-257 -431,-251 -463,-51l-6 480z"/>
  <path class="fil0" d="M4540 4311l295 1c-9,-409 -474,-337 -490,-74 -11,290 369,312 404,167l-91 -54 -115 0c-19,-9 -20,-32 -3,-40zm-11 -84l154 0c-24,-85 -143,-78 -154,0z"/>
  <path class="fil0" d="M5175 4229l115 -113c-203,-154 -367,-52 -403,74 -72,278 252,389 382,229l-89 -88c-94,35 -134,-17 -132,-66 2,-51 64,-107 127,-36z"/>
  <polygon class="fil0" points="5467,4094 5328,4094 5440,4263 5330,4446 5471,4447 5587,4265 "/>
  <polygon class="fil0" points="5662,4094 5524,4094 5635,4265 5526,4446 5667,4446 5784,4257 "/>
  <path class="fil1" d="M210 5110c-23,24 -53,36 -88,36 -35,0 -64,-12 -87,-36 -23,-24 -35,-53 -35,-87 0,-34 12,-63 35,-87 24,-24 53,-37 88,-37 35,0 65,12 88,36 2,3 4,5 6,7l0 -33 32 0 0 238 -32 0 0 -44c-2,2 -4,5 -7,7zm-87 4c26,0 46,-8 63,-26 16,-18 24,-39 24,-65 0,-26 -8,-48 -25,-66 -17,-18 -38,-27 -63,-27 -25,0 -46,9 -62,27 -16,18 -24,40 -24,66 0,25 8,47 25,65 17,18 38,26 62,26z"/>
  <polygon class="fil0" points="2978,3252 3174,3252 3174,3295 2978,3295 "/>
 </g>
</svg>
