<?xml version="1.0" encoding="UTF-8"?>
<!DOCTYPE svg PUBLIC "-//W3C//DTD SVG 1.1//EN" "http://www.w3.org/Graphics/SVG/1.1/DTD/svg11.dtd">
<!-- Creator: CorelDRAW X7 -->
<svg xmlns="http://www.w3.org/2000/svg" xml:space="preserve" width="3.956mm" height="3.879mm" version="1.1" style="shape-rendering:geometricPrecision; text-rendering:geometricPrecision; image-rendering:optimizeQuality; fill-rule:evenodd; clip-rule:evenodd"
viewBox="0 0 396 388"
 xmlns:xlink="http://www.w3.org/1999/xlink">
 <defs>
  <style type="text/css">
   <![CDATA[
    .fil0 {fill:#FEFEFE}
   ]]>
  </style>
 </defs>
 <g id="Слой_x0020_1">
  <metadata id="CorelCorpID_0Corel-Layer"/>
  <path class="fil0" d="M123 204c0,-18 5,-34 16,-48 7,-9 9,-10 17,-16 3,-3 9,-6 13,-7 39,-18 73,-4 97,25 16,24 19,51 6,78 -4,9 -8,14 -16,21 -22,23 -57,29 -86,16 -17,-7 -29,-20 -38,-35 -5,-8 -9,-22 -9,-34zm-46 -2c0,6 0,10 1,15 0,7 3,19 5,25 4,10 10,21 16,30 11,16 29,32 47,40 20,9 34,13 58,13 33,0 64,-14 86,-37 9,-9 17,-19 23,-30 2,-4 5,-12 7,-16l3 -12c3,-15 5,-35 1,-50 -1,-6 -3,-12 -5,-19l39 0 0 174c0,8 -5,16 -15,16l-290 0c-9,0 -15,-6 -15,-15l0 -175 46 0c-4,15 -7,24 -7,41zm205 -108l0 -37c0,-7 3,-17 12,-17l47 0c7,0 13,7 13,14l0 44c0,7 -7,13 -12,13l-47 0c-10,0 -13,-9 -13,-17zm-282 -44l0 288c0,27 26,50 53,50l290 0c21,0 41,-14 49,-32 2,-6 4,-13 4,-23l0 -279c0,-29 -22,-54 -53,-54l-291 0c-27,0 -52,24 -52,50z"/>
 </g>
</svg>
