<?xml version="1.0" encoding="UTF-8"?>
<!DOCTYPE svg PUBLIC "-//W3C//DTD SVG 1.1//EN" "http://www.w3.org/Graphics/SVG/1.1/DTD/svg11.dtd">
<!-- Creator: CorelDRAW X7 -->
<svg xmlns="http://www.w3.org/2000/svg" xml:space="preserve" width="4.727mm" height="2.678mm" version="1.1" style="shape-rendering:geometricPrecision; text-rendering:geometricPrecision; image-rendering:optimizeQuality; fill-rule:evenodd; clip-rule:evenodd"
viewBox="0 0 473 268"
 xmlns:xlink="http://www.w3.org/1999/xlink">
 <defs>
  <style type="text/css">
   <![CDATA[
    .fil0 {fill:#FEFEFE}
   ]]>
  </style>
 </defs>
 <g id="Слой_x0020_1">
  <metadata id="CorelCorpID_0Corel-Layer"/>
  <path class="fil0" d="M157 16c6,4 16,2 23,14 10,15 8,79 0,94 -17,33 -67,-72 -75,-91 -2,-4 -4,-8 -6,-12 -2,-4 -4,-7 -8,-9 -8,-5 -57,-3 -70,-3 -32,1 -21,14 -9,40 23,49 47,94 79,136 33,45 73,77 134,82 11,1 23,1 34,0 26,-3 12,-23 23,-49 10,-25 30,-8 41,6 6,7 12,12 17,19 26,29 41,24 83,24 11,0 27,1 37,0 10,-1 15,-11 11,-22 -4,-12 -21,-32 -30,-41 -6,-7 -13,-12 -18,-18 -11,-12 -33,-25 -26,-43 3,-8 23,-34 30,-42 10,-14 20,-27 30,-42 4,-6 9,-15 12,-23 4,-11 7,-21 -4,-25 -9,-3 -57,-2 -70,-2 -37,0 -29,1 -42,30 -8,17 -16,33 -25,47 -7,13 -22,33 -32,41 -9,7 -17,-2 -19,-11 -5,-16 2,-88 -4,-104 -3,-11 -12,-12 -23,-12 -13,0 -64,0 -72,0 -10,2 -20,10 -21,16z"/>
 </g>
</svg>
